<svg xmlns="http://www.w3.org/2000/svg" xmlns:xlink="http://www.w3.org/1999/xlink" viewBox="0 0 639.29 898.5"><defs><style>.cls-1{fill:url(#Degradado_sin_nombre_27);}.cls-2{fill:url(#Degradado_sin_nombre_38);}.cls-3{fill:url(#Degradado_sin_nombre_20);}.cls-4{fill:#a83531;}.cls-5{fill:url(#Degradado_sin_nombre_23);}</style><linearGradient id="Degradado_sin_nombre_27" x1="189.5" y1="825.71" x2="189.5" y2="141.45" gradientUnits="userSpaceOnUse"><stop offset="0" stop-color="#0075be"/><stop offset="0.09" stop-color="#1483cd"/><stop offset="0.29" stop-color="#399dea"/><stop offset="0.4" stop-color="#47a7f5"/><stop offset="0.52" stop-color="#47aaf5"/><stop offset="0.6" stop-color="#47b3f5"/><stop offset="0.67" stop-color="#47c1f5"/><stop offset="1" stop-color="#cce0f4"/></linearGradient><linearGradient id="Degradado_sin_nombre_38" y1="560.37" x2="349.58" y2="560.37" gradientUnits="userSpaceOnUse"><stop offset="0" stop-color="#244967"/><stop offset="0.4" stop-color="#35729c"/><stop offset="0.53" stop-color="#3a7fae"/><stop offset="0.94" stop-color="#44a3d9"/><stop offset="1" stop-color="#46a9e0"/></linearGradient><linearGradient id="Degradado_sin_nombre_20" x1="147.32" y1="356.25" x2="659.51" y2="651.96" gradientUnits="userSpaceOnUse"><stop offset="0" stop-color="#f1f578"/><stop offset="0.1" stop-color="#f0e867"/><stop offset="0.29" stop-color="#eec73a"/><stop offset="0.43" stop-color="#ecae18"/><stop offset="0.64" stop-color="#ec9718"/><stop offset="0.79" stop-color="#ec8b18"/><stop offset="0.84" stop-color="#ec7f18"/><stop offset="0.93" stop-color="#ec6c18"/><stop offset="0.99" stop-color="#ec6518"/></linearGradient><linearGradient id="Degradado_sin_nombre_23" x1="211.82" y1="336.98" x2="511.2" y2="855.51" gradientUnits="userSpaceOnUse"><stop offset="0" stop-color="#f5645f"/><stop offset="0.24" stop-color="#f55b48"/><stop offset="0.4" stop-color="#f55336"/><stop offset="0.76" stop-color="#f5531e"/><stop offset="0.88" stop-color="#f34619"/><stop offset="0.99" stop-color="#f23e16"/></linearGradient></defs><g id="Capa_2" data-name="Capa 2"><g id="Capa_1-2" data-name="Capa 1"><path class="cls-1" d="M240.12,141.45S66.9,266,14.14,481.4C-14.39,597.88-8.44,795.2,190.65,823.13,378.36,849.46,377.87,666.22,377.27,652c-3-70.72.59-92.11-93.31-208.6C169.2,301,240.12,141.45,240.12,141.45Z"/><path class="cls-2" d="M98.53,294.82S52.18,350.68,14.44,481.91C-18.69,597.13-8.14,795.59,191,823.51c108.92,15.28,170.87-44.81,156.6-106.17-10.32-44.39-72.49-89.52-128.37-107C2.27,542.59,98.53,294.82,98.53,294.82Z"/><path class="cls-3" d="M371.92,0s-59.29,50.62-84.39,121.24c-21.85,61.46-5.29,145.64,3.56,170,19.16,52.7,128,211.46,141.45,305.48,4.75,33.29,51.71,300.13-227.62,278.74,0,0,323.9,115.89,416.61-174.14,60.86-190.36-47.95-311.62-127.18-378C304.17,164,371.92,0,371.92,0Z"/><path class="cls-4" d="M371.86.1S354.23,9,329.13,79.64c-8.45,23.76-14.44,87.32,30.9,145C399.59,275,441.19,297,487.22,334c37.67,30.32,86.77,72.5,86.77,72.5s-4.38-18.42-79.7-83.1C301.79,158.09,371.86.1,371.86.1Z"/><path class="cls-5" d="M291.09,291.21c2,4.84,5.06,12.08,8.92,20.81,36.89,83.48,65.55,117.56,92.12,171.75,13.44,27.42,31.56,64.7,40.16,113.48,6.27,35.52,27.91,157.58-50.94,230.89-35.47,33-91.11,53.85-177.28,47.25,0,0,192.82,69.21,323.65-31.9,63-48.67,88.16-125.75,93.56-141.64a332.72,332.72,0,0,0,16.89-128.93c-3-44.57-15.45-76.07-15.45-76.07s0,9.48,0,29.71c0,26.29-.16,48.27-7.13,72.51a163.78,163.78,0,0,1-13.08,32.09,197.05,197.05,0,0,0-10.69-48.73C574.09,533,536.22,491.28,536,490.91c0,0,36.76,80.68,19,172.35-8.24,42.56-27.34,75.71-44,98.65a433.24,433.24,0,0,0-4.16-64.78C504.15,678,494,614.94,446.21,526c-14.55-27.09-20.62-34.29-80.83-123.62C333.73,355.4,308.06,316.81,291.09,291.21Z"/><path class="cls-4" d="M432.87,597.37s66.62,301-228.22,278.14c0,0,204.51,82.32,244.92-72.2C481.66,680.6,432.87,597.37,432.87,597.37Z"/></g></g></svg>