<svg xmlns="http://www.w3.org/2000/svg" xmlns:xlink="http://www.w3.org/1999/xlink" viewBox="0 0 682.98 577.6"><defs><style>.cls-1{stroke:#000;stroke-miterlimit:10;stroke-width:3px;}.cls-2{fill:url(#Degradado_sin_nombre_27);}.cls-3{fill:url(#Degradado_sin_nombre_38);}.cls-4{fill:url(#Degradado_sin_nombre_20);}.cls-5{fill:#a93632;}.cls-6{fill:url(#Degradado_sin_nombre_23);}</style><linearGradient id="Degradado_sin_nombre_27" x1="265.15" y1="418.77" x2="265.15" y2="71.74" gradientUnits="userSpaceOnUse"><stop offset="0" stop-color="#0f75bb"/><stop offset="0.1" stop-color="#2683c4"/><stop offset="0.3" stop-color="#4b99d3"/><stop offset="0.4" stop-color="#59a2d9"/><stop offset="0.51" stop-color="#58a5db"/><stop offset="0.59" stop-color="#55aee2"/><stop offset="0.67" stop-color="#50beed"/><stop offset="0.67" stop-color="#4fc0ef"/><stop offset="1" stop-color="#cce0f4"/></linearGradient><linearGradient id="Degradado_sin_nombre_38" x1="169.04" y1="284.2" x2="346.33" y2="284.2" gradientUnits="userSpaceOnUse"><stop offset="0" stop-color="#244a68"/><stop offset="0.4" stop-color="#35739d"/><stop offset="0.53" stop-color="#3a80af"/><stop offset="0.94" stop-color="#47a4da"/><stop offset="1" stop-color="#49a9e0"/></linearGradient><linearGradient id="Degradado_sin_nombre_20" x1="243.75" y1="180.68" x2="503.52" y2="330.65" gradientUnits="userSpaceOnUse"><stop offset="0" stop-color="#ece97d"/><stop offset="0.1" stop-color="#ecdf6c"/><stop offset="0.29" stop-color="#ecc53f"/><stop offset="0.43" stop-color="#ecaf1b"/><stop offset="0.64" stop-color="#ec981a"/><stop offset="0.79" stop-color="#ec8c19"/><stop offset="0.84" stop-color="#ec8019"/><stop offset="0.93" stop-color="#ec6d18"/><stop offset="0.99" stop-color="#ec6618"/></linearGradient><linearGradient id="Degradado_sin_nombre_23" x1="276.47" y1="170.9" x2="428.3" y2="433.88" gradientUnits="userSpaceOnUse"><stop offset="0" stop-color="#ec6562"/><stop offset="0.24" stop-color="#eb5c4b"/><stop offset="0.4" stop-color="#ea553a"/><stop offset="0.76" stop-color="#ea5427"/><stop offset="0.87" stop-color="#e84923"/><stop offset="0.99" stop-color="#e74120"/></linearGradient></defs><g id="Capa_2" data-name="Capa 2"><g id="Capa_1-2" data-name="Capa 1"><path class="cls-1" d="M105.89,505.5l-23.6,70h-7.8L54,515.8l-20.6,59.7h-7.7l-23.6-70h7.6l20.2,60.2,20.9-60.2h6.9L78.29,566l20.5-60.5Z"/><path class="cls-1" d="M176.19,556.8h-39l-8.4,18.7h-7.7l32-70h7.3l32,70h-7.8Zm-2.7-6-16.8-37.6-16.8,37.6Z"/><path class="cls-1" d="M229.09,511.9h-24.6v-6.4h56.6v6.4h-24.6v63.6h-7.4Z"/><path class="cls-1" d="M337.39,569.1v6.4h-49.5v-70h48v6.4h-40.6v24.9h36.2v6.3h-36.2v26Z"/><path class="cls-1" d="M417.59,575.5l-16-22.5a50.75,50.75,0,0,1-5.6.3h-18.8v22.2h-7.4v-70H396q13.39,0,21,6.4t7.6,17.6a21.71,21.71,0,0,1-16,22l17.1,24Zm-5.9-33.1q5.49-4.59,5.5-12.9,0-8.49-5.5-13t-15.9-4.55h-18.6V547h18.6Q406.19,547,411.69,542.4Z"/><path class="cls-1" d="M506.39,540.5h7.1v26.7a34.18,34.18,0,0,1-11.6,6.6,43,43,0,0,1-14.1,2.3,38.66,38.66,0,0,1-18.9-4.6,33.86,33.86,0,0,1-13.2-12.75,37.09,37.09,0,0,1,0-36.5,34,34,0,0,1,13.2-12.75,39,39,0,0,1,19-4.6,41,41,0,0,1,14.7,2.55,29.33,29.33,0,0,1,11.3,7.55l-4.6,4.7q-8.31-8.19-21.1-8.2a31.41,31.41,0,0,0-15.35,3.75,27.57,27.57,0,0,0-10.75,10.4,28.84,28.84,0,0,0-3.9,14.85,28.53,28.53,0,0,0,3.9,14.8,28.06,28.06,0,0,0,10.7,10.4,30.73,30.73,0,0,0,15.3,3.8q10.8,0,18.3-5.4Z"/><path class="cls-1" d="M593.29,556.8h-39l-8.4,18.7h-7.7l32-70h7.3l32,70h-7.8Zm-2.7-6-16.8-37.6L557,550.8Z"/><path class="cls-1" d="M640.43,573.6a27.26,27.26,0,0,1-11-6.6l2.89-5.7a27.6,27.6,0,0,0,10.11,6.15,36.82,36.82,0,0,0,13,2.35q9.39,0,14.09-3.45a10.61,10.61,0,0,0,4.7-9,9,9,0,0,0-2.54-6.7,17.45,17.45,0,0,0-6.25-3.85,103,103,0,0,0-10.3-3,106.74,106.74,0,0,1-12.61-3.85,20.66,20.66,0,0,1-8.05-5.65q-3.34-3.79-3.34-10.3a17.44,17.44,0,0,1,2.8-9.65,19.19,19.19,0,0,1,8.59-7,35.3,35.3,0,0,1,14.41-2.6,42.43,42.43,0,0,1,11.75,1.65,34,34,0,0,1,10,4.55l-2.5,5.9a34.67,34.67,0,0,0-9.41-4.35,35.24,35.24,0,0,0-9.79-1.45c-6.14,0-10.75,1.19-13.86,3.55a11,11,0,0,0-4.64,9.15,9.12,9.12,0,0,0,2.54,6.75,16.8,16.8,0,0,0,6.41,3.9q3.84,1.35,10.34,3a105.43,105.43,0,0,1,12.46,3.75,20.52,20.52,0,0,1,8,5.6c2.21,2.5,3.3,5.89,3.3,10.15a17.29,17.29,0,0,1-2.84,9.65,19.23,19.23,0,0,1-8.75,6.9,36.58,36.58,0,0,1-14.5,2.55A44.91,44.91,0,0,1,640.43,573.6Z"/><path class="cls-2" d="M290.82,71.74S203,134.89,176.21,244.15c-14.47,59.07-11.45,159.14,89.52,173.31,95.2,13.36,94.95-79.58,94.65-86.81-1.51-35.86.3-46.72-47.33-105.79C254.85,152.66,290.82,71.74,290.82,71.74Z"/><path class="cls-3" d="M219,149.52s-23.51,28.33-42.65,94.89c-16.8,58.43-11.45,159.09,89.52,173.25,55.24,7.74,86.66-22.73,79.43-53.85-5.24-22.52-36.77-45.4-65.11-54.26C170.19,275.18,219,149.52,219,149.52Z"/><path class="cls-4" d="M357.66,0s-30.07,25.67-42.8,61.49c-11.07,31.17-2.68,73.86,1.81,86.2,9.72,26.73,64.93,107.25,71.74,154.93C390.82,319.5,414.63,454.84,273,444c0,0,164.27,58.77,211.29-88.32,30.86-96.54-24.32-158-64.5-191.7C323.3,83.19,357.66,0,357.66,0Z"/><path class="cls-5" d="M357.63.05S348.69,4.58,336,40.39c-4.28,12-7.32,44.28,15.68,73.55,20.06,25.52,41.15,36.66,64.5,55.46,19.1,15.37,44,36.77,44,36.77s-2.23-9.34-40.42-42.15C322.1,80.18,357.63.05,357.63.05Z"/><path class="cls-6" d="M316.67,147.69c1,2.45,2.57,6.13,4.52,10.55,18.71,42.34,33.25,59.63,46.72,87.11,6.82,13.91,16,32.82,20.37,57.55,3.18,18,14.16,79.92-25.84,117.1-18,16.73-46.2,27.31-89.9,24,0,0,97.79,35.11,164.14-16.17C468.62,403.11,481.39,364,484.13,356a168.7,168.7,0,0,0,8.57-65.38C491.19,268,484.86,252,484.86,252v15.07c0,13.34-.08,24.48-3.62,36.78a82.73,82.73,0,0,1-6.63,16.27,100,100,0,0,0-5.42-24.71c-9-25.08-28.2-46.23-28.34-46.42,0,0,18.65,40.92,9.65,87.41-4.18,21.59-13.86,38.4-22.3,50a221.58,221.58,0,0,0-2.11-32.86c-1.37-9.71-6.51-41.68-30.75-86.81-7.38-13.74-10.45-17.39-41-62.69C338.3,180.25,325.28,160.68,316.67,147.69Z"/><path class="cls-5" d="M388.58,303S422.36,455.64,272.83,444c0,0,103.72,41.75,124.21-36.62C413.32,345.18,388.58,303,388.58,303Z"/></g></g></svg>