<svg xmlns="http://www.w3.org/2000/svg" xmlns:xlink="http://www.w3.org/1999/xlink" viewBox="0 0 626.51 227.4"><defs><style>.cls-1{fill:#fff;}.cls-2{fill:url(#Degradado_sin_nombre_27);}.cls-3{fill:url(#Degradado_sin_nombre_38);}.cls-4{fill:url(#Degradado_sin_nombre_20);}.cls-5{fill:#a93632;}.cls-6{fill:url(#Degradado_sin_nombre_23);}</style><linearGradient id="Degradado_sin_nombre_27" x1="47.45" y1="206.77" x2="47.45" y2="35.42" gradientUnits="userSpaceOnUse"><stop offset="0" stop-color="#0f75bb"/><stop offset="0.1" stop-color="#2683c4"/><stop offset="0.3" stop-color="#4b99d3"/><stop offset="0.4" stop-color="#59a2d9"/><stop offset="0.51" stop-color="#58a5db"/><stop offset="0.59" stop-color="#55aee2"/><stop offset="0.67" stop-color="#50beed"/><stop offset="0.67" stop-color="#4fc0ef"/><stop offset="1" stop-color="#cce0f4"/></linearGradient><linearGradient id="Degradado_sin_nombre_38" y1="140.33" x2="87.54" y2="140.33" gradientUnits="userSpaceOnUse"><stop offset="0" stop-color="#244a68"/><stop offset="0.4" stop-color="#35739d"/><stop offset="0.53" stop-color="#3a80af"/><stop offset="0.94" stop-color="#47a4da"/><stop offset="1" stop-color="#49a9e0"/></linearGradient><linearGradient id="Degradado_sin_nombre_20" x1="36.89" y1="89.21" x2="165.15" y2="163.26" gradientUnits="userSpaceOnUse"><stop offset="0" stop-color="#ece97d"/><stop offset="0.1" stop-color="#ecdf6c"/><stop offset="0.29" stop-color="#ecc53f"/><stop offset="0.43" stop-color="#ecaf1b"/><stop offset="0.64" stop-color="#ec981a"/><stop offset="0.79" stop-color="#ec8c19"/><stop offset="0.84" stop-color="#ec8019"/><stop offset="0.93" stop-color="#ec6d18"/><stop offset="0.99" stop-color="#ec6618"/></linearGradient><linearGradient id="Degradado_sin_nombre_23" x1="53.04" y1="84.39" x2="128.01" y2="214.24" gradientUnits="userSpaceOnUse"><stop offset="0" stop-color="#ec6562"/><stop offset="0.24" stop-color="#eb5c4b"/><stop offset="0.4" stop-color="#ea553a"/><stop offset="0.76" stop-color="#ea5427"/><stop offset="0.87" stop-color="#e84923"/><stop offset="0.99" stop-color="#e74120"/></linearGradient></defs><g id="Capa_2" data-name="Capa 2"><g id="Capa_1-2" data-name="Capa 1"><path class="cls-1" d="M290,0l-22.9,70h-17.4l-15.4-47.4L218.41,70h-17.3l-23-70h16.8l15.8,49.2L227.21,0h15l16,49.6L274.51,0Z"/><path class="cls-1" d="M357.81,55h-32.5l-6.2,15h-16.6l31.2-70h16L381,70H364Zm-5.1-12.3-11.1-26.8-11.1,26.8Z"/><path class="cls-1" d="M414.31,13.2h-22.4V0h61V13.2h-22.4V70h-16.2Z"/><path class="cls-1" d="M530.81,57V70h-54.2V0h52.9V13h-36.8V28.2h32.5V40.8h-32.5V57Z"/><path class="cls-1" d="M603.31,70l-13.5-19.5h-14.9V70h-16.2V0H589a38.84,38.84,0,0,1,16.15,3.1,24.07,24.07,0,0,1,10.55,8.8,24.3,24.3,0,0,1,3.7,13.5,23.77,23.77,0,0,1-3.75,13.45A23.75,23.75,0,0,1,605,47.5L620.71,70Zm-4.1-53.65q-3.81-3.15-11.1-3.15h-13.2V37.6h13.2q7.29,0,11.1-3.2t3.8-9Q603,19.51,599.21,16.35Z"/><path class="cls-1" d="M287.11,152.8h29.6v56.8a84.5,84.5,0,0,1-26.4,13.2,102.4,102.4,0,0,1-30.2,4.6q-21.8,0-39.2-9.3a69.23,69.23,0,0,1-27.3-25.8q-9.9-16.5-9.9-37.3t9.9-37.3a68.92,68.92,0,0,1,27.5-25.8q17.59-9.3,39.6-9.3a86.71,86.71,0,0,1,33.4,6.2,66.32,66.32,0,0,1,25.2,18L298.51,126q-15-15.8-36.2-15.8a49.45,49.45,0,0,0-23.8,5.6,40.26,40.26,0,0,0-16.2,15.8,46.47,46.47,0,0,0-5.8,23.4,46.06,46.06,0,0,0,5.8,23.2,41,41,0,0,0,16.1,15.9,47.73,47.73,0,0,0,23.5,5.7,52.53,52.53,0,0,0,25.2-6Z"/><path class="cls-1" d="M449.51,195h-65l-12.4,30h-33.2l62.4-140h32l62.6,140h-34Zm-10.2-24.6-22.2-53.6-22.2,53.6Z"/><path class="cls-1" d="M535,222.9q-15.51-4.5-24.9-11.7l11-24.4a74.43,74.43,0,0,0,21.4,10.6,80.23,80.23,0,0,0,24.8,4q13.8,0,20.4-4.1t6.6-10.9a10.42,10.42,0,0,0-3.9-8.3,29.75,29.75,0,0,0-10-5.3q-6.1-2-16.5-4.4a227.89,227.89,0,0,1-26.2-7.6,42.49,42.49,0,0,1-17.5-12.2q-7.31-8.4-7.3-22.4a39,39,0,0,1,6.6-22.1q6.6-9.9,19.9-15.7t32.5-5.8a107.84,107.84,0,0,1,26.2,3.2,77.62,77.62,0,0,1,22.4,9.2l-10,24.6q-19.41-11-38.8-11-13.61,0-20.1,4.4t-6.5,11.6q0,7.2,7.5,10.7t22.9,6.9a230.54,230.54,0,0,1,26.2,7.6,43.34,43.34,0,0,1,17.5,12q7.29,8.2,7.3,22.2a38.28,38.28,0,0,1-6.7,21.9q-6.7,9.9-20.1,15.7t-32.6,5.8A114.51,114.51,0,0,1,535,222.9Z"/><path class="cls-2" d="M60.13,35.42S16.75,66.6,3.54,120.55c-7.14,29.17-5.65,78.58,44.2,85.58,47,6.59,46.89-39.3,46.74-42.87-.75-17.71.14-23.06-23.37-52.23C42.37,75.38,60.13,35.42,60.13,35.42Z"/><path class="cls-3" d="M24.67,73.83s-11.6,14-21,46.85c-8.3,28.85-5.66,78.55,44.2,85.54C75.09,210.05,90.61,195,87,179.64c-2.58-11.12-18.15-22.42-32.14-26.79C.57,135.87,24.67,73.83,24.67,73.83Z"/><path class="cls-4" d="M93.14,0S78.29,12.68,72,30.36c-5.47,15.39-1.32,36.47.9,42.57,4.79,13.19,32.05,52.95,35.42,76.49,1.19,8.34,12.94,75.16-57,69.8,0,0,81.11,29,104.32-43.6,15.24-47.67-12-78-31.85-94.66C76.17,41.08,93.14,0,93.14,0Z"/><path class="cls-5" d="M93.12,0s-4.41,2.23-10.7,19.91c-2.11,5.95-3.61,21.87,7.74,36.32,9.9,12.6,20.32,18.1,31.85,27.38,9.43,7.59,21.73,18.16,21.73,18.16s-1.1-4.61-20-20.81C75.57,39.59,93.12,0,93.12,0Z"/><path class="cls-6" d="M72.9,72.93c.5,1.21,1.26,3,2.23,5.2,9.24,20.91,16.41,29.45,23.07,43,3.36,6.86,7.9,16.2,10,28.41,1.57,8.9,7,39.46-12.75,57.82-8.89,8.26-22.82,13.49-44.4,11.83,0,0,48.29,17.34,81.05-8,15.77-12.18,22.08-31.49,23.43-35.46a83.44,83.44,0,0,0,4.23-32.29,69.18,69.18,0,0,0-3.87-19v7.44c0,6.58,0,12.09-1.78,18.16a41.58,41.58,0,0,1-3.28,8,49.23,49.23,0,0,0-2.68-12.21c-4.44-12.38-13.92-22.82-14-22.92s9.21,20.21,4.76,43.16a62.26,62.26,0,0,1-11,24.71,109.11,109.11,0,0,0-1-16.23c-.67-4.79-3.21-20.58-15.18-42.86-3.64-6.78-5.16-8.58-20.24-30.95C83.57,89,77.14,79.34,72.9,72.93Z"/><path class="cls-5" d="M108.4,149.59S125.08,225,51.25,219.24c0,0,51.21,20.62,61.33-18.08C120.62,170.43,108.4,149.59,108.4,149.59Z"/></g></g></svg>