<svg xmlns="http://www.w3.org/2000/svg" xmlns:xlink="http://www.w3.org/1999/xlink" viewBox="0 0 702.8 601.7"><defs><style>.cls-1{font-size:100px;font-family:Montserrat-Regular, Montserrat;letter-spacing:0.11em;}.cls-2{letter-spacing:0.12em;}.cls-3{letter-spacing:0.15em;}.cls-4{fill:url(#Degradado_sin_nombre_27);}.cls-5{fill:url(#Degradado_sin_nombre_38);}.cls-6{fill:url(#Degradado_sin_nombre_20);}.cls-7{fill:#a93632;}.cls-8{fill:url(#Degradado_sin_nombre_23);}</style><linearGradient id="Degradado_sin_nombre_27" x1="266.76" y1="418.77" x2="266.76" y2="71.74" gradientUnits="userSpaceOnUse"><stop offset="0" stop-color="#0f75bb"/><stop offset="0.1" stop-color="#2683c4"/><stop offset="0.3" stop-color="#4b99d3"/><stop offset="0.4" stop-color="#59a2d9"/><stop offset="0.51" stop-color="#58a5db"/><stop offset="0.59" stop-color="#55aee2"/><stop offset="0.67" stop-color="#50beed"/><stop offset="0.67" stop-color="#4fc0ef"/><stop offset="1" stop-color="#cce0f4"/></linearGradient><linearGradient id="Degradado_sin_nombre_38" x1="170.65" y1="284.2" x2="347.95" y2="284.2" gradientUnits="userSpaceOnUse"><stop offset="0" stop-color="#244a68"/><stop offset="0.4" stop-color="#35739d"/><stop offset="0.53" stop-color="#3a80af"/><stop offset="0.94" stop-color="#47a4da"/><stop offset="1" stop-color="#49a9e0"/></linearGradient><linearGradient id="Degradado_sin_nombre_20" x1="245.37" y1="180.68" x2="505.13" y2="330.65" gradientUnits="userSpaceOnUse"><stop offset="0" stop-color="#ece97d"/><stop offset="0.1" stop-color="#ecdf6c"/><stop offset="0.29" stop-color="#ecc53f"/><stop offset="0.43" stop-color="#ecaf1b"/><stop offset="0.64" stop-color="#ec981a"/><stop offset="0.79" stop-color="#ec8c19"/><stop offset="0.84" stop-color="#ec8019"/><stop offset="0.93" stop-color="#ec6d18"/><stop offset="0.99" stop-color="#ec6618"/></linearGradient><linearGradient id="Degradado_sin_nombre_23" x1="278.08" y1="170.9" x2="429.91" y2="433.88" gradientUnits="userSpaceOnUse"><stop offset="0" stop-color="#ec6562"/><stop offset="0.24" stop-color="#eb5c4b"/><stop offset="0.4" stop-color="#ea553a"/><stop offset="0.76" stop-color="#ea5427"/><stop offset="0.87" stop-color="#e84923"/><stop offset="0.99" stop-color="#e74120"/></linearGradient></defs><g id="Capa_2" data-name="Capa 2"><g id="Capa_1-2" data-name="Capa 1"><text class="cls-1" transform="translate(0 575.5)">W<tspan class="cls-2" x="122.5" y="0">A</tspan><tspan class="cls-3" x="205.7" y="0">TERGAS</tspan></text><path class="cls-4" d="M292.43,71.74s-87.85,63.15-114.61,172.41c-14.47,59.07-11.45,159.14,89.52,173.31,95.2,13.36,95-79.58,94.65-86.81-1.51-35.86.3-46.72-47.32-105.79C256.46,152.66,292.43,71.74,292.43,71.74Z"/><path class="cls-5" d="M220.62,149.52S197.11,177.85,178,244.41c-16.8,58.43-11.45,159.09,89.53,173.25,55.23,7.74,86.65-22.73,79.42-53.85-5.24-22.52-36.77-45.4-65.11-54.26C171.8,275.18,220.62,149.52,220.62,149.52Z"/><path class="cls-6" d="M359.28,0S329.2,25.67,316.47,61.49c-11.07,31.17-2.68,73.86,1.81,86.2C328,174.42,383.21,254.94,390,302.62,392.43,319.5,416.24,454.84,274.58,444c0,0,164.27,58.77,211.29-88.32,30.86-96.54-24.32-158-64.5-191.7C324.91,83.19,359.28,0,359.28,0Z"/><path class="cls-7" d="M359.25.05s-8.95,4.53-21.68,40.34c-4.28,12-7.32,44.28,15.68,73.55,20.06,25.52,41.16,36.66,64.5,55.46,19.1,15.37,44,36.77,44,36.77s-2.22-9.34-40.42-42.15C323.71,80.18,359.25.05,359.25.05Z"/><path class="cls-8" d="M318.28,147.69c1,2.45,2.57,6.13,4.52,10.55,18.71,42.34,33.25,59.63,46.72,87.11,6.82,13.91,16,32.82,20.37,57.55,3.18,18,14.16,79.92-25.83,117.1-18,16.73-46.21,27.31-89.91,24,0,0,97.79,35.11,164.14-16.17C470.23,403.11,483,364,485.74,356a168.7,168.7,0,0,0,8.57-65.38C492.8,268,486.47,252,486.47,252s0,4.81,0,15.07c0,13.34-.08,24.48-3.61,36.78a83.52,83.52,0,0,1-6.64,16.27,100,100,0,0,0-5.42-24.71c-9-25.08-28.2-46.23-28.33-46.42,0,0,18.64,40.92,9.64,87.41-4.18,21.59-13.86,38.4-22.3,50a220.21,220.21,0,0,0-2.11-32.86c-1.36-9.71-6.51-41.68-30.75-86.81-7.38-13.74-10.45-17.39-41-62.69C339.91,180.25,326.89,160.68,318.28,147.69Z"/><path class="cls-7" d="M390.19,303S424,455.64,274.44,444c0,0,103.72,41.75,124.22-36.62C414.93,345.18,390.19,303,390.19,303Z"/></g></g></svg>